<?xml version="1.0" encoding="UTF-8" standalone="no"?>
<!DOCTYPE svg PUBLIC "-//W3C//DTD SVG 1.1//EN"
 "http://www.w3.org/Graphics/SVG/1.1/DTD/svg11.dtd">
<!-- Generated by graphviz version 2.47.0 (20210316.0004)
 -->
<!-- Title: dependencies Pages: 1 -->
<svg width="504pt" height="284pt"
 viewBox="0.00 0.00 504.00 284.00" xmlns="http://www.w3.org/2000/svg" xmlns:xlink="http://www.w3.org/1999/xlink">
<g id="graph0" class="graph" transform="scale(1 1) rotate(0) translate(4 280)">
<title>dependencies</title>
<polygon fill="white" stroke="transparent" points="-4,4 -4,-280 500,-280 500,4 -4,4"/>
<text text-anchor="start" x="227.01" y="-42.4" font-family="Times-12" font-weight="bold" font-size="14.00">Legend</text>
<polygon fill="#ffffb3" stroke="transparent" points="14,-10 14,-30 34,-30 34,-10 14,-10"/>
<text text-anchor="start" x="37.63" y="-15.4" font-family="Times-12" font-size="14.00"> &#160;Declarations</text>
<polygon fill="#8dd3c7" stroke="transparent" points="127,-10 127,-30 147,-30 147,-10 127,-10"/>
<text text-anchor="start" x="150.73" y="-15.4" font-family="Times-12" font-size="14.00"> &#160;Module</text>
<polygon fill="#80b1d3" stroke="transparent" points="213,-10 213,-30 233,-30 233,-10 213,-10"/>
<text text-anchor="start" x="236.78" y="-15.4" font-family="Times-12" font-size="14.00"> &#160;Bootstrap</text>
<polygon fill="#fdb462" stroke="transparent" points="310,-10 310,-30 330,-30 330,-10 310,-10"/>
<text text-anchor="start" x="333.67" y="-15.4" font-family="Times-12" font-size="14.00"> &#160;Providers</text>
<polygon fill="#fb8072" stroke="transparent" points="406,-10 406,-30 426,-30 426,-10 406,-10"/>
<text text-anchor="start" x="429.73" y="-15.4" font-family="Times-12" font-size="14.00"> &#160;Exports</text>
<g id="clust1" class="cluster">
<title>cluster_SharedModule</title>
<polygon fill="none" stroke="black" stroke-dasharray="1,5" points="31,-70 31,-268 465,-268 465,-70 31,-70"/>
</g>
<g id="clust6" class="cluster">
<title>cluster_SharedModule_exports</title>
<polygon fill="none" stroke="black" points="39,-208 39,-260 457,-260 457,-208 39,-208"/>
</g>
<g id="clust5" class="cluster">
<title>cluster_SharedModule_imports</title>
<polygon fill="none" stroke="black" points="329,-78 329,-130 451,-130 451,-78 329,-78"/>
</g>
<g id="clust2" class="cluster">
<title>cluster_SharedModule_declarations</title>
<polygon fill="none" stroke="black" points="39,-78 39,-130 321,-130 321,-78 39,-78"/>
</g>
<!-- HighlightDirective -->
<g id="node1" class="node">
<title>HighlightDirective</title>
<polygon fill="#ffffb3" stroke="black" points="312.75,-122 191.25,-122 191.25,-86 312.75,-86 312.75,-122"/>
<text text-anchor="middle" x="252" y="-99.8" font-family="Times,serif" font-size="14.00">HighlightDirective</text>
</g>
<!-- SharedModule -->
<g id="node3" class="node">
<title>SharedModule</title>
<polygon fill="#8dd3c7" stroke="black" points="300.42,-187 297.42,-191 276.42,-191 273.42,-187 201.58,-187 201.58,-151 300.42,-151 300.42,-187"/>
<text text-anchor="middle" x="251" y="-164.8" font-family="Times,serif" font-size="14.00">SharedModule</text>
</g>
<!-- HighlightDirective&#45;&gt;SharedModule -->
<g id="edge1" class="edge">
<title>HighlightDirective&#45;&gt;SharedModule</title>
<path fill="none" stroke="black" d="M251,-122.11C251,-122.11 251,-140.99 251,-140.99"/>
<polygon fill="black" stroke="black" points="247.5,-140.99 251,-150.99 254.5,-140.99 247.5,-140.99"/>
</g>
<!-- RoundOffPricePipe -->
<g id="node2" class="node">
<title>RoundOffPricePipe</title>
<polygon fill="#ffffb3" stroke="black" points="173.42,-122 46.58,-122 46.58,-86 173.42,-86 173.42,-122"/>
<text text-anchor="middle" x="110" y="-99.8" font-family="Times,serif" font-size="14.00">RoundOffPricePipe</text>
</g>
<!-- RoundOffPricePipe&#45;&gt;SharedModule -->
<g id="edge2" class="edge">
<title>RoundOffPricePipe&#45;&gt;SharedModule</title>
<path fill="none" stroke="black" d="M89.1,-122.02C89.1,-139.37 89.1,-163 89.1,-163 89.1,-163 191.54,-163 191.54,-163"/>
<polygon fill="black" stroke="black" points="191.54,-166.5 201.54,-163 191.54,-159.5 191.54,-166.5"/>
</g>
<!-- HighlightDirective  -->
<g id="node5" class="node">
<title>HighlightDirective </title>
<polygon fill="#fb8072" stroke="black" points="448.75,-252 323.25,-252 323.25,-216 448.75,-216 448.75,-252"/>
<text text-anchor="middle" x="386" y="-229.8" font-family="Times,serif" font-size="14.00">HighlightDirective </text>
</g>
<!-- SharedModule&#45;&gt;HighlightDirective  -->
<g id="edge4" class="edge">
<title>SharedModule&#45;&gt;HighlightDirective </title>
<path fill="none" stroke="black" stroke-dasharray="5,2" d="M300.55,-175C316.41,-175 329.94,-175 329.94,-175 329.94,-175 329.94,-205.98 329.94,-205.98"/>
<polygon fill="black" stroke="black" points="326.44,-205.98 329.94,-215.98 333.44,-205.98 326.44,-205.98"/>
</g>
<!-- MaterialModule  -->
<g id="node6" class="node">
<title>MaterialModule </title>
<polygon fill="#fb8072" stroke="black" points="305.47,-252 194.53,-252 194.53,-216 305.47,-216 305.47,-252"/>
<text text-anchor="middle" x="250" y="-229.8" font-family="Times,serif" font-size="14.00">MaterialModule </text>
</g>
<!-- SharedModule&#45;&gt;MaterialModule  -->
<g id="edge5" class="edge">
<title>SharedModule&#45;&gt;MaterialModule </title>
<path fill="none" stroke="black" stroke-dasharray="5,2" d="M251,-187.11C251,-187.11 251,-205.99 251,-205.99"/>
<polygon fill="black" stroke="black" points="247.5,-205.99 251,-215.99 254.5,-205.99 247.5,-205.99"/>
</g>
<!-- RoundOffPricePipe  -->
<g id="node7" class="node">
<title>RoundOffPricePipe </title>
<polygon fill="#fb8072" stroke="black" points="176.92,-252 47.08,-252 47.08,-216 176.92,-216 176.92,-252"/>
<text text-anchor="middle" x="112" y="-229.8" font-family="Times,serif" font-size="14.00">RoundOffPricePipe </text>
</g>
<!-- SharedModule&#45;&gt;RoundOffPricePipe  -->
<g id="edge6" class="edge">
<title>SharedModule&#45;&gt;RoundOffPricePipe </title>
<path fill="none" stroke="black" stroke-dasharray="5,2" d="M201.56,-175C168.55,-175 131.15,-175 131.15,-175 131.15,-175 131.15,-205.98 131.15,-205.98"/>
<polygon fill="black" stroke="black" points="127.65,-205.98 131.15,-215.98 134.65,-205.98 127.65,-205.98"/>
</g>
<!-- MaterialModule -->
<g id="node4" class="node">
<title>MaterialModule</title>
<polygon fill="#8dd3c7" stroke="black" points="443.47,-122 440.47,-126 419.47,-126 416.47,-122 336.53,-122 336.53,-86 443.47,-86 443.47,-122"/>
<text text-anchor="middle" x="390" y="-99.8" font-family="Times,serif" font-size="14.00">MaterialModule</text>
</g>
<!-- MaterialModule&#45;&gt;SharedModule -->
<g id="edge3" class="edge">
<title>MaterialModule&#45;&gt;SharedModule</title>
<path fill="none" stroke="black" d="M390,-122.02C390,-139.37 390,-163 390,-163 390,-163 310.4,-163 310.4,-163"/>
<polygon fill="black" stroke="black" points="310.4,-159.5 300.4,-163 310.4,-166.5 310.4,-159.5"/>
</g>
</g>
</svg>
