<?xml version="1.0" encoding="UTF-8" standalone="no"?>
<!DOCTYPE svg PUBLIC "-//W3C//DTD SVG 1.1//EN"
 "http://www.w3.org/Graphics/SVG/1.1/DTD/svg11.dtd">
<!-- Generated by graphviz version 2.47.0 (20210316.0004)
 -->
<!-- Title: dependencies Pages: 1 -->
<svg width="1326pt" height="211pt"
 viewBox="0.00 0.00 1326.00 211.00" xmlns="http://www.w3.org/2000/svg" xmlns:xlink="http://www.w3.org/1999/xlink">
<g id="graph0" class="graph" transform="scale(1 1) rotate(0) translate(4 207)">
<title>dependencies</title>
<polygon fill="white" stroke="transparent" points="-4,4 -4,-207 1322,-207 1322,4 -4,4"/>
<text text-anchor="start" x="638.01" y="-42.4" font-family="Times-12" font-weight="bold" font-size="14.00">Legend</text>
<polygon fill="#ffffb3" stroke="transparent" points="425,-10 425,-30 445,-30 445,-10 425,-10"/>
<text text-anchor="start" x="448.63" y="-15.4" font-family="Times-12" font-size="14.00"> &#160;Declarations</text>
<polygon fill="#8dd3c7" stroke="transparent" points="538,-10 538,-30 558,-30 558,-10 538,-10"/>
<text text-anchor="start" x="561.73" y="-15.4" font-family="Times-12" font-size="14.00"> &#160;Module</text>
<polygon fill="#80b1d3" stroke="transparent" points="624,-10 624,-30 644,-30 644,-10 624,-10"/>
<text text-anchor="start" x="647.78" y="-15.4" font-family="Times-12" font-size="14.00"> &#160;Bootstrap</text>
<polygon fill="#fdb462" stroke="transparent" points="721,-10 721,-30 741,-30 741,-10 721,-10"/>
<text text-anchor="start" x="744.67" y="-15.4" font-family="Times-12" font-size="14.00"> &#160;Providers</text>
<polygon fill="#fb8072" stroke="transparent" points="817,-10 817,-30 837,-30 837,-10 817,-10"/>
<text text-anchor="start" x="840.73" y="-15.4" font-family="Times-12" font-size="14.00"> &#160;Exports</text>
<g id="clust1" class="cluster">
<title>cluster_FeatureModule</title>
<polygon fill="none" stroke="black" stroke-dasharray="1,5" points="8,-70 8,-195 1310,-195 1310,-70 8,-70"/>
</g>
<g id="clust2" class="cluster">
<title>cluster_FeatureModule_declarations</title>
<polygon fill="none" stroke="black" points="303,-78 303,-130 1302,-130 1302,-78 303,-78"/>
</g>
<g id="clust9" class="cluster">
<title>cluster_FeatureModule_imports</title>
<polygon fill="none" stroke="black" points="16,-78 16,-130 295,-130 295,-78 16,-78"/>
</g>
<!-- AddNewProductComponent -->
<g id="node1" class="node">
<title>AddNewProductComponent</title>
<polygon fill="#ffffb3" stroke="black" points="1293.92,-122 1118.08,-122 1118.08,-86 1293.92,-86 1293.92,-122"/>
<text text-anchor="middle" x="1206" y="-99.8" font-family="Times,serif" font-size="14.00">AddNewProductComponent</text>
</g>
<!-- FeatureModule -->
<g id="node7" class="node">
<title>FeatureModule</title>
<polygon fill="#8dd3c7" stroke="black" points="669.53,-187 666.53,-191 645.53,-191 642.53,-187 568.47,-187 568.47,-151 669.53,-151 669.53,-187"/>
<text text-anchor="middle" x="619" y="-164.8" font-family="Times,serif" font-size="14.00">FeatureModule</text>
</g>
<!-- AddNewProductComponent&#45;&gt;FeatureModule -->
<g id="edge1" class="edge">
<title>AddNewProductComponent&#45;&gt;FeatureModule</title>
<path fill="none" stroke="black" d="M1206,-122.29C1206,-144.21 1206,-178 1206,-178 1206,-178 679.56,-178 679.56,-178"/>
<polygon fill="black" stroke="black" points="679.56,-174.5 669.56,-178 679.56,-181.5 679.56,-174.5"/>
</g>
<!-- NewProductComponent -->
<g id="node2" class="node">
<title>NewProductComponent</title>
<polygon fill="#ffffb3" stroke="black" points="1100.81,-122 949.19,-122 949.19,-86 1100.81,-86 1100.81,-122"/>
<text text-anchor="middle" x="1025" y="-99.8" font-family="Times,serif" font-size="14.00">NewProductComponent</text>
</g>
<!-- NewProductComponent&#45;&gt;FeatureModule -->
<g id="edge2" class="edge">
<title>NewProductComponent&#45;&gt;FeatureModule</title>
<path fill="none" stroke="black" d="M1025,-122.11C1025,-141.34 1025,-169 1025,-169 1025,-169 679.6,-169 679.6,-169"/>
<polygon fill="black" stroke="black" points="679.6,-165.5 669.6,-169 679.6,-172.5 679.6,-165.5"/>
</g>
<!-- ProductCardComponent -->
<g id="node3" class="node">
<title>ProductCardComponent</title>
<polygon fill="#ffffb3" stroke="black" points="931.09,-122 778.91,-122 778.91,-86 931.09,-86 931.09,-122"/>
<text text-anchor="middle" x="855" y="-99.8" font-family="Times,serif" font-size="14.00">ProductCardComponent</text>
</g>
<!-- ProductCardComponent&#45;&gt;FeatureModule -->
<g id="edge3" class="edge">
<title>ProductCardComponent&#45;&gt;FeatureModule</title>
<path fill="none" stroke="black" d="M855,-122.03C855,-138.4 855,-160 855,-160 855,-160 679.63,-160 679.63,-160"/>
<polygon fill="black" stroke="black" points="679.63,-156.5 669.63,-160 679.63,-163.5 679.63,-156.5"/>
</g>
<!-- ProductComponent -->
<g id="node4" class="node">
<title>ProductComponent</title>
<polygon fill="#ffffb3" stroke="black" points="761.38,-122 636.62,-122 636.62,-86 761.38,-86 761.38,-122"/>
<text text-anchor="middle" x="699" y="-99.8" font-family="Times,serif" font-size="14.00">ProductComponent</text>
</g>
<!-- ProductComponent&#45;&gt;FeatureModule -->
<g id="edge4" class="edge">
<title>ProductComponent&#45;&gt;FeatureModule</title>
<path fill="none" stroke="black" d="M653.16,-122.11C653.16,-122.11 653.16,-140.99 653.16,-140.99"/>
<polygon fill="black" stroke="black" points="649.66,-140.99 653.16,-150.99 656.66,-140.99 649.66,-140.99"/>
</g>
<!-- ProductDetailComponent -->
<g id="node5" class="node">
<title>ProductDetailComponent</title>
<polygon fill="#ffffb3" stroke="black" points="618.59,-122 459.41,-122 459.41,-86 618.59,-86 618.59,-122"/>
<text text-anchor="middle" x="539" y="-99.8" font-family="Times,serif" font-size="14.00">ProductDetailComponent</text>
</g>
<!-- ProductDetailComponent&#45;&gt;FeatureModule -->
<g id="edge5" class="edge">
<title>ProductDetailComponent&#45;&gt;FeatureModule</title>
<path fill="none" stroke="black" d="M593.39,-122.11C593.39,-122.11 593.39,-140.99 593.39,-140.99"/>
<polygon fill="black" stroke="black" points="589.89,-140.99 593.39,-150.99 596.89,-140.99 589.89,-140.99"/>
</g>
<!-- ProductsComponent -->
<g id="node6" class="node">
<title>ProductsComponent</title>
<polygon fill="#ffffb3" stroke="black" points="441.33,-122 310.67,-122 310.67,-86 441.33,-86 441.33,-122"/>
<text text-anchor="middle" x="376" y="-99.8" font-family="Times,serif" font-size="14.00">ProductsComponent</text>
</g>
<!-- ProductsComponent&#45;&gt;FeatureModule -->
<g id="edge6" class="edge">
<title>ProductsComponent&#45;&gt;FeatureModule</title>
<path fill="none" stroke="black" d="M376,-122.03C376,-138.4 376,-160 376,-160 376,-160 558.36,-160 558.36,-160"/>
<polygon fill="black" stroke="black" points="558.36,-163.5 568.36,-160 558.35,-156.5 558.36,-163.5"/>
</g>
<!-- FeatureRoutingModule -->
<g id="node8" class="node">
<title>FeatureRoutingModule</title>
<polygon fill="#8dd3c7" stroke="black" points="287.15,-122 284.15,-126 263.15,-126 260.15,-122 140.85,-122 140.85,-86 287.15,-86 287.15,-122"/>
<text text-anchor="middle" x="214" y="-99.8" font-family="Times,serif" font-size="14.00">FeatureRoutingModule</text>
</g>
<!-- FeatureRoutingModule&#45;&gt;FeatureModule -->
<g id="edge7" class="edge">
<title>FeatureRoutingModule&#45;&gt;FeatureModule</title>
<path fill="none" stroke="black" d="M214,-122.11C214,-141.34 214,-169 214,-169 214,-169 558.12,-169 558.12,-169"/>
<polygon fill="black" stroke="black" points="558.12,-172.5 568.12,-169 558.12,-165.5 558.12,-172.5"/>
</g>
<!-- SharedModule -->
<g id="node9" class="node">
<title>SharedModule</title>
<polygon fill="#8dd3c7" stroke="black" points="122.42,-122 119.42,-126 98.42,-126 95.42,-122 23.58,-122 23.58,-86 122.42,-86 122.42,-122"/>
<text text-anchor="middle" x="73" y="-99.8" font-family="Times,serif" font-size="14.00">SharedModule</text>
</g>
<!-- SharedModule&#45;&gt;FeatureModule -->
<g id="edge8" class="edge">
<title>SharedModule&#45;&gt;FeatureModule</title>
<path fill="none" stroke="black" d="M73,-122.29C73,-144.21 73,-178 73,-178 73,-178 558.12,-178 558.12,-178"/>
<polygon fill="black" stroke="black" points="558.12,-181.5 568.12,-178 558.12,-174.5 558.12,-181.5"/>
</g>
</g>
</svg>
