<?xml version="1.0" encoding="UTF-8" standalone="no"?>
<!DOCTYPE svg PUBLIC "-//W3C//DTD SVG 1.1//EN"
 "http://www.w3.org/Graphics/SVG/1.1/DTD/svg11.dtd">
<!-- Generated by graphviz version 2.47.0 (20210316.0004)
 -->
<!-- Title: dependencies Pages: 1 -->
<svg width="738pt" height="284pt"
 viewBox="0.00 0.00 738.00 284.00" xmlns="http://www.w3.org/2000/svg" xmlns:xlink="http://www.w3.org/1999/xlink">
<g id="graph0" class="graph" transform="scale(1 1) rotate(0) translate(4 280)">
<title>dependencies</title>
<polygon fill="white" stroke="transparent" points="-4,4 -4,-280 734,-280 734,4 -4,4"/>
<text text-anchor="start" x="344.01" y="-42.4" font-family="Times-12" font-weight="bold" font-size="14.00">Legend</text>
<polygon fill="#ffffb3" stroke="transparent" points="131,-10 131,-30 151,-30 151,-10 131,-10"/>
<text text-anchor="start" x="154.63" y="-15.4" font-family="Times-12" font-size="14.00"> &#160;Declarations</text>
<polygon fill="#8dd3c7" stroke="transparent" points="244,-10 244,-30 264,-30 264,-10 244,-10"/>
<text text-anchor="start" x="267.73" y="-15.4" font-family="Times-12" font-size="14.00"> &#160;Module</text>
<polygon fill="#80b1d3" stroke="transparent" points="330,-10 330,-30 350,-30 350,-10 330,-10"/>
<text text-anchor="start" x="353.78" y="-15.4" font-family="Times-12" font-size="14.00"> &#160;Bootstrap</text>
<polygon fill="#fdb462" stroke="transparent" points="427,-10 427,-30 447,-30 447,-10 427,-10"/>
<text text-anchor="start" x="450.67" y="-15.4" font-family="Times-12" font-size="14.00"> &#160;Providers</text>
<polygon fill="#fb8072" stroke="transparent" points="523,-10 523,-30 543,-30 543,-10 523,-10"/>
<text text-anchor="start" x="546.73" y="-15.4" font-family="Times-12" font-size="14.00"> &#160;Exports</text>
<g id="clust1" class="cluster">
<title>cluster_AppModule</title>
<polygon fill="none" stroke="black" stroke-dasharray="1,5" points="8,-70 8,-268 722,-268 722,-70 8,-70"/>
</g>
<g id="clust6" class="cluster">
<title>cluster_AppModule_bootstrap</title>
<polygon fill="none" stroke="black" points="305,-208 305,-260 429,-260 429,-208 305,-208"/>
</g>
<g id="clust2" class="cluster">
<title>cluster_AppModule_declarations</title>
<polygon fill="none" stroke="black" points="592,-78 592,-130 714,-130 714,-78 592,-78"/>
</g>
<g id="clust4" class="cluster">
<title>cluster_AppModule_imports</title>
<polygon fill="none" stroke="black" points="16,-78 16,-130 584,-130 584,-78 16,-78"/>
</g>
<!-- AppComponent -->
<g id="node1" class="node">
<title>AppComponent</title>
<polygon fill="#ffffb3" stroke="black" points="705.94,-122 600.06,-122 600.06,-86 705.94,-86 705.94,-122"/>
<text text-anchor="middle" x="653" y="-99.8" font-family="Times,serif" font-size="14.00">AppComponent</text>
</g>
<!-- AppModule -->
<g id="node2" class="node">
<title>AppModule</title>
<polygon fill="#8dd3c7" stroke="black" points="408.66,-187 405.66,-191 384.66,-191 381.66,-187 325.34,-187 325.34,-151 408.66,-151 408.66,-187"/>
<text text-anchor="middle" x="367" y="-164.8" font-family="Times,serif" font-size="14.00">AppModule</text>
</g>
<!-- AppComponent&#45;&gt;AppModule -->
<g id="edge1" class="edge">
<title>AppComponent&#45;&gt;AppModule</title>
<path fill="none" stroke="black" d="M653,-122.28C653,-143.32 653,-175 653,-175 653,-175 418.89,-175 418.89,-175"/>
<polygon fill="black" stroke="black" points="418.89,-171.5 408.89,-175 418.89,-178.5 418.89,-171.5"/>
</g>
<!-- AppComponent  -->
<g id="node7" class="node">
<title>AppComponent </title>
<polygon fill="#80b1d3" stroke="black" points="421.44,-252 312.56,-252 312.56,-216 421.44,-216 421.44,-252"/>
<text text-anchor="middle" x="367" y="-229.8" font-family="Times,serif" font-size="14.00">AppComponent </text>
</g>
<!-- AppModule&#45;&gt;AppComponent  -->
<g id="edge6" class="edge">
<title>AppModule&#45;&gt;AppComponent </title>
<path fill="none" stroke="black" stroke-dasharray="1,5" d="M367,-187.11C367,-187.11 367,-205.99 367,-205.99"/>
<polygon fill="black" stroke="black" points="363.5,-205.99 367,-215.99 370.5,-205.99 363.5,-205.99"/>
</g>
<!-- AppRoutingModule -->
<g id="node3" class="node">
<title>AppRoutingModule</title>
<polygon fill="#8dd3c7" stroke="black" points="576.27,-122 573.27,-126 552.27,-126 549.27,-122 447.73,-122 447.73,-86 576.27,-86 576.27,-122"/>
<text text-anchor="middle" x="512" y="-99.8" font-family="Times,serif" font-size="14.00">AppRoutingModule</text>
</g>
<!-- AppRoutingModule&#45;&gt;AppModule -->
<g id="edge2" class="edge">
<title>AppRoutingModule&#45;&gt;AppModule</title>
<path fill="none" stroke="black" d="M512,-122.02C512,-139.37 512,-163 512,-163 512,-163 418.94,-163 418.94,-163"/>
<polygon fill="black" stroke="black" points="418.94,-159.5 408.94,-163 418.94,-166.5 418.94,-159.5"/>
</g>
<!-- CartFeatureModule -->
<g id="node4" class="node">
<title>CartFeatureModule</title>
<polygon fill="#8dd3c7" stroke="black" points="429.63,-122 426.63,-126 405.63,-126 402.63,-122 304.37,-122 304.37,-86 429.63,-86 429.63,-122"/>
<text text-anchor="middle" x="367" y="-99.8" font-family="Times,serif" font-size="14.00">CartFeatureModule</text>
</g>
<!-- CartFeatureModule&#45;&gt;AppModule -->
<g id="edge3" class="edge">
<title>CartFeatureModule&#45;&gt;AppModule</title>
<path fill="none" stroke="black" d="M367,-122.11C367,-122.11 367,-140.99 367,-140.99"/>
<polygon fill="black" stroke="black" points="363.5,-140.99 367,-150.99 370.5,-140.99 363.5,-140.99"/>
</g>
<!-- LayoutModule -->
<g id="node5" class="node">
<title>LayoutModule</title>
<polygon fill="#8dd3c7" stroke="black" points="286.71,-122 283.71,-126 262.71,-126 259.71,-122 187.29,-122 187.29,-86 286.71,-86 286.71,-122"/>
<text text-anchor="middle" x="237" y="-99.8" font-family="Times,serif" font-size="14.00">LayoutModule</text>
</g>
<!-- LayoutModule&#45;&gt;AppModule -->
<g id="edge4" class="edge">
<title>LayoutModule&#45;&gt;AppModule</title>
<path fill="none" stroke="black" d="M237,-122.02C237,-139.37 237,-163 237,-163 237,-163 315.15,-163 315.15,-163"/>
<polygon fill="black" stroke="black" points="315.15,-166.5 325.15,-163 315.15,-159.5 315.15,-166.5"/>
</g>
<!-- ProductFeatureModule -->
<g id="node6" class="node">
<title>ProductFeatureModule</title>
<polygon fill="#8dd3c7" stroke="black" points="169.58,-122 166.58,-126 145.58,-126 142.58,-122 24.42,-122 24.42,-86 169.58,-86 169.58,-122"/>
<text text-anchor="middle" x="97" y="-99.8" font-family="Times,serif" font-size="14.00">ProductFeatureModule</text>
</g>
<!-- ProductFeatureModule&#45;&gt;AppModule -->
<g id="edge5" class="edge">
<title>ProductFeatureModule&#45;&gt;AppModule</title>
<path fill="none" stroke="black" d="M97,-122.28C97,-143.32 97,-175 97,-175 97,-175 315.11,-175 315.11,-175"/>
<polygon fill="black" stroke="black" points="315.11,-178.5 325.11,-175 315.11,-171.5 315.11,-178.5"/>
</g>
</g>
</svg>
