<?xml version="1.0" encoding="UTF-8" standalone="no"?>
<!DOCTYPE svg PUBLIC "-//W3C//DTD SVG 1.1//EN"
 "http://www.w3.org/Graphics/SVG/1.1/DTD/svg11.dtd">
<!-- Generated by graphviz version 2.47.0 (20210316.0004)
 -->
<!-- Title: dependencies Pages: 1 -->
<svg width="1496pt" height="211pt"
 viewBox="0.00 0.00 1496.00 211.00" xmlns="http://www.w3.org/2000/svg" xmlns:xlink="http://www.w3.org/1999/xlink">
<g id="graph0" class="graph" transform="scale(1 1) rotate(0) translate(4 207)">
<title>dependencies</title>
<polygon fill="white" stroke="transparent" points="-4,4 -4,-207 1492,-207 1492,4 -4,4"/>
<text text-anchor="start" x="723.01" y="-42.4" font-family="Times-12" font-weight="bold" font-size="14.00">Legend</text>
<polygon fill="#ffffb3" stroke="transparent" points="510,-10 510,-30 530,-30 530,-10 510,-10"/>
<text text-anchor="start" x="533.63" y="-15.4" font-family="Times-12" font-size="14.00"> &#160;Declarations</text>
<polygon fill="#8dd3c7" stroke="transparent" points="623,-10 623,-30 643,-30 643,-10 623,-10"/>
<text text-anchor="start" x="646.73" y="-15.4" font-family="Times-12" font-size="14.00"> &#160;Module</text>
<polygon fill="#80b1d3" stroke="transparent" points="709,-10 709,-30 729,-30 729,-10 709,-10"/>
<text text-anchor="start" x="732.78" y="-15.4" font-family="Times-12" font-size="14.00"> &#160;Bootstrap</text>
<polygon fill="#fdb462" stroke="transparent" points="806,-10 806,-30 826,-30 826,-10 806,-10"/>
<text text-anchor="start" x="829.67" y="-15.4" font-family="Times-12" font-size="14.00"> &#160;Providers</text>
<polygon fill="#fb8072" stroke="transparent" points="902,-10 902,-30 922,-30 922,-10 902,-10"/>
<text text-anchor="start" x="925.73" y="-15.4" font-family="Times-12" font-size="14.00"> &#160;Exports</text>
<g id="clust1" class="cluster">
<title>cluster_ProductFeatureModule</title>
<polygon fill="none" stroke="black" stroke-dasharray="1,5" points="8,-70 8,-195 1480,-195 1480,-70 8,-70"/>
</g>
<g id="clust2" class="cluster">
<title>cluster_ProductFeatureModule_declarations</title>
<polygon fill="none" stroke="black" points="346,-78 346,-130 1472,-130 1472,-78 346,-78"/>
</g>
<g id="clust9" class="cluster">
<title>cluster_ProductFeatureModule_imports</title>
<polygon fill="none" stroke="black" points="16,-78 16,-130 338,-130 338,-78 16,-78"/>
</g>
<!-- AddNewProductFeatureComponent -->
<g id="node1" class="node">
<title>AddNewProductFeatureComponent</title>
<polygon fill="#ffffb3" stroke="black" points="1463.89,-122 1246.11,-122 1246.11,-86 1463.89,-86 1463.89,-122"/>
<text text-anchor="middle" x="1355" y="-99.8" font-family="Times,serif" font-size="14.00">AddNewProductFeatureComponent</text>
</g>
<!-- ProductFeatureModule -->
<g id="node7" class="node">
<title>ProductFeatureModule</title>
<polygon fill="#8dd3c7" stroke="black" points="790.58,-187 787.58,-191 766.58,-191 763.58,-187 645.42,-187 645.42,-151 790.58,-151 790.58,-187"/>
<text text-anchor="middle" x="718" y="-164.8" font-family="Times,serif" font-size="14.00">ProductFeatureModule</text>
</g>
<!-- AddNewProductFeatureComponent&#45;&gt;ProductFeatureModule -->
<g id="edge1" class="edge">
<title>AddNewProductFeatureComponent&#45;&gt;ProductFeatureModule</title>
<path fill="none" stroke="black" d="M1355,-122.29C1355,-144.21 1355,-178 1355,-178 1355,-178 800.76,-178 800.76,-178"/>
<polygon fill="black" stroke="black" points="800.76,-174.5 790.76,-178 800.76,-181.5 800.76,-174.5"/>
</g>
<!-- NewProductComponent -->
<g id="node2" class="node">
<title>NewProductComponent</title>
<polygon fill="#ffffb3" stroke="black" points="1228.81,-122 1077.19,-122 1077.19,-86 1228.81,-86 1228.81,-122"/>
<text text-anchor="middle" x="1153" y="-99.8" font-family="Times,serif" font-size="14.00">NewProductComponent</text>
</g>
<!-- NewProductComponent&#45;&gt;ProductFeatureModule -->
<g id="edge2" class="edge">
<title>NewProductComponent&#45;&gt;ProductFeatureModule</title>
<path fill="none" stroke="black" d="M1153,-122.11C1153,-141.34 1153,-169 1153,-169 1153,-169 800.81,-169 800.81,-169"/>
<polygon fill="black" stroke="black" points="800.81,-165.5 790.81,-169 800.81,-172.5 800.81,-165.5"/>
</g>
<!-- ProductCardComponent -->
<g id="node3" class="node">
<title>ProductCardComponent</title>
<polygon fill="#ffffb3" stroke="black" points="1059.09,-122 906.91,-122 906.91,-86 1059.09,-86 1059.09,-122"/>
<text text-anchor="middle" x="983" y="-99.8" font-family="Times,serif" font-size="14.00">ProductCardComponent</text>
</g>
<!-- ProductCardComponent&#45;&gt;ProductFeatureModule -->
<g id="edge3" class="edge">
<title>ProductCardComponent&#45;&gt;ProductFeatureModule</title>
<path fill="none" stroke="black" d="M983,-122.03C983,-138.4 983,-160 983,-160 983,-160 800.76,-160 800.76,-160"/>
<polygon fill="black" stroke="black" points="800.76,-156.5 790.76,-160 800.76,-163.5 800.76,-156.5"/>
</g>
<!-- ProductDetailComponent -->
<g id="node4" class="node">
<title>ProductDetailComponent</title>
<polygon fill="#ffffb3" stroke="black" points="888.59,-122 729.41,-122 729.41,-86 888.59,-86 888.59,-122"/>
<text text-anchor="middle" x="809" y="-99.8" font-family="Times,serif" font-size="14.00">ProductDetailComponent</text>
</g>
<!-- ProductDetailComponent&#45;&gt;ProductFeatureModule -->
<g id="edge4" class="edge">
<title>ProductDetailComponent&#45;&gt;ProductFeatureModule</title>
<path fill="none" stroke="black" d="M760,-122.11C760,-122.11 760,-140.99 760,-140.99"/>
<polygon fill="black" stroke="black" points="756.5,-140.99 760,-150.99 763.5,-140.99 756.5,-140.99"/>
</g>
<!-- ProductFeatureComponent -->
<g id="node5" class="node">
<title>ProductFeatureComponent</title>
<polygon fill="#ffffb3" stroke="black" points="711.36,-122 544.64,-122 544.64,-86 711.36,-86 711.36,-122"/>
<text text-anchor="middle" x="628" y="-99.8" font-family="Times,serif" font-size="14.00">ProductFeatureComponent</text>
</g>
<!-- ProductFeatureComponent&#45;&gt;ProductFeatureModule -->
<g id="edge5" class="edge">
<title>ProductFeatureComponent&#45;&gt;ProductFeatureModule</title>
<path fill="none" stroke="black" d="M678.45,-122.11C678.45,-122.11 678.45,-140.99 678.45,-140.99"/>
<polygon fill="black" stroke="black" points="674.95,-140.99 678.45,-150.99 681.95,-140.99 674.95,-140.99"/>
</g>
<!-- ProductsFeatureComponent -->
<g id="node6" class="node">
<title>ProductsFeatureComponent</title>
<polygon fill="#ffffb3" stroke="black" points="526.3,-122 353.7,-122 353.7,-86 526.3,-86 526.3,-122"/>
<text text-anchor="middle" x="440" y="-99.8" font-family="Times,serif" font-size="14.00">ProductsFeatureComponent</text>
</g>
<!-- ProductsFeatureComponent&#45;&gt;ProductFeatureModule -->
<g id="edge6" class="edge">
<title>ProductsFeatureComponent&#45;&gt;ProductFeatureModule</title>
<path fill="none" stroke="black" d="M440,-122.03C440,-138.4 440,-160 440,-160 440,-160 635.32,-160 635.32,-160"/>
<polygon fill="black" stroke="black" points="635.32,-163.5 645.32,-160 635.32,-156.5 635.32,-163.5"/>
</g>
<!-- ProductFeatureRoutingModule -->
<g id="node8" class="node">
<title>ProductFeatureRoutingModule</title>
<polygon fill="#8dd3c7" stroke="black" points="330.19,-122 327.19,-126 306.19,-126 303.19,-122 139.81,-122 139.81,-86 330.19,-86 330.19,-122"/>
<text text-anchor="middle" x="235" y="-99.8" font-family="Times,serif" font-size="14.00">ProductFeatureRoutingModule</text>
</g>
<!-- ProductFeatureRoutingModule&#45;&gt;ProductFeatureModule -->
<g id="edge7" class="edge">
<title>ProductFeatureRoutingModule&#45;&gt;ProductFeatureModule</title>
<path fill="none" stroke="black" d="M235,-122.11C235,-141.34 235,-169 235,-169 235,-169 635.43,-169 635.43,-169"/>
<polygon fill="black" stroke="black" points="635.43,-172.5 645.43,-169 635.43,-165.5 635.43,-172.5"/>
</g>
<!-- SharedModule -->
<g id="node9" class="node">
<title>SharedModule</title>
<polygon fill="#8dd3c7" stroke="black" points="122.42,-122 119.42,-126 98.42,-126 95.42,-122 23.58,-122 23.58,-86 122.42,-86 122.42,-122"/>
<text text-anchor="middle" x="73" y="-99.8" font-family="Times,serif" font-size="14.00">SharedModule</text>
</g>
<!-- SharedModule&#45;&gt;ProductFeatureModule -->
<g id="edge8" class="edge">
<title>SharedModule&#45;&gt;ProductFeatureModule</title>
<path fill="none" stroke="black" d="M73,-122.29C73,-144.21 73,-178 73,-178 73,-178 635.26,-178 635.26,-178"/>
<polygon fill="black" stroke="black" points="635.26,-181.5 645.26,-178 635.26,-174.5 635.26,-181.5"/>
</g>
</g>
</svg>
