<?xml version="1.0" encoding="UTF-8" standalone="no"?>
<!DOCTYPE svg PUBLIC "-//W3C//DTD SVG 1.1//EN"
 "http://www.w3.org/Graphics/SVG/1.1/DTD/svg11.dtd">
<!-- Generated by graphviz version 2.47.0 (20210316.0004)
 -->
<!-- Title: dependencies Pages: 1 -->
<svg width="692pt" height="211pt"
 viewBox="0.00 0.00 692.00 211.00" xmlns="http://www.w3.org/2000/svg" xmlns:xlink="http://www.w3.org/1999/xlink">
<g id="graph0" class="graph" transform="scale(1 1) rotate(0) translate(4 207)">
<title>dependencies</title>
<polygon fill="white" stroke="transparent" points="-4,4 -4,-207 688,-207 688,4 -4,4"/>
<text text-anchor="start" x="321.01" y="-42.4" font-family="Times-12" font-weight="bold" font-size="14.00">Legend</text>
<polygon fill="#ffffb3" stroke="transparent" points="108,-10 108,-30 128,-30 128,-10 108,-10"/>
<text text-anchor="start" x="131.63" y="-15.4" font-family="Times-12" font-size="14.00"> &#160;Declarations</text>
<polygon fill="#8dd3c7" stroke="transparent" points="221,-10 221,-30 241,-30 241,-10 221,-10"/>
<text text-anchor="start" x="244.73" y="-15.4" font-family="Times-12" font-size="14.00"> &#160;Module</text>
<polygon fill="#80b1d3" stroke="transparent" points="307,-10 307,-30 327,-30 327,-10 307,-10"/>
<text text-anchor="start" x="330.78" y="-15.4" font-family="Times-12" font-size="14.00"> &#160;Bootstrap</text>
<polygon fill="#fdb462" stroke="transparent" points="404,-10 404,-30 424,-30 424,-10 404,-10"/>
<text text-anchor="start" x="427.67" y="-15.4" font-family="Times-12" font-size="14.00"> &#160;Providers</text>
<polygon fill="#fb8072" stroke="transparent" points="500,-10 500,-30 520,-30 520,-10 500,-10"/>
<text text-anchor="start" x="523.73" y="-15.4" font-family="Times-12" font-size="14.00"> &#160;Exports</text>
<g id="clust1" class="cluster">
<title>cluster_CartFeatureModule</title>
<polygon fill="none" stroke="black" stroke-dasharray="1,5" points="8,-70 8,-195 676,-195 676,-70 8,-70"/>
</g>
<g id="clust2" class="cluster">
<title>cluster_CartFeatureModule_declarations</title>
<polygon fill="none" stroke="black" points="327,-78 327,-130 668,-130 668,-78 327,-78"/>
</g>
<g id="clust5" class="cluster">
<title>cluster_CartFeatureModule_imports</title>
<polygon fill="none" stroke="black" points="16,-78 16,-130 319,-130 319,-78 16,-78"/>
</g>
<!-- CartFeatureComponent -->
<g id="node1" class="node">
<title>CartFeatureComponent</title>
<polygon fill="#ffffb3" stroke="black" points="659.91,-122 512.09,-122 512.09,-86 659.91,-86 659.91,-122"/>
<text text-anchor="middle" x="586" y="-99.8" font-family="Times,serif" font-size="14.00">CartFeatureComponent</text>
</g>
<!-- CartFeatureModule -->
<g id="node3" class="node">
<title>CartFeatureModule</title>
<polygon fill="#8dd3c7" stroke="black" points="382.63,-187 379.63,-191 358.63,-191 355.63,-187 257.37,-187 257.37,-151 382.63,-151 382.63,-187"/>
<text text-anchor="middle" x="320" y="-164.8" font-family="Times,serif" font-size="14.00">CartFeatureModule</text>
</g>
<!-- CartFeatureComponent&#45;&gt;CartFeatureModule -->
<g id="edge1" class="edge">
<title>CartFeatureComponent&#45;&gt;CartFeatureModule</title>
<path fill="none" stroke="black" d="M586,-122.11C586,-141.34 586,-169 586,-169 586,-169 392.7,-169 392.7,-169"/>
<polygon fill="black" stroke="black" points="392.7,-165.5 382.7,-169 392.7,-172.5 392.7,-165.5"/>
</g>
<!-- ShoppingCartComponent -->
<g id="node2" class="node">
<title>ShoppingCartComponent</title>
<polygon fill="#ffffb3" stroke="black" points="494.61,-122 335.39,-122 335.39,-86 494.61,-86 494.61,-122"/>
<text text-anchor="middle" x="415" y="-99.8" font-family="Times,serif" font-size="14.00">ShoppingCartComponent</text>
</g>
<!-- ShoppingCartComponent&#45;&gt;CartFeatureModule -->
<g id="edge2" class="edge">
<title>ShoppingCartComponent&#45;&gt;CartFeatureModule</title>
<path fill="none" stroke="black" d="M359.13,-122.11C359.13,-122.11 359.13,-140.99 359.13,-140.99"/>
<polygon fill="black" stroke="black" points="355.63,-140.99 359.13,-150.99 362.63,-140.99 355.63,-140.99"/>
</g>
<!-- CartFeatureRoutingModule -->
<g id="node4" class="node">
<title>CartFeatureRoutingModule</title>
<polygon fill="#8dd3c7" stroke="black" points="311.25,-122 308.25,-126 287.25,-126 284.25,-122 140.75,-122 140.75,-86 311.25,-86 311.25,-122"/>
<text text-anchor="middle" x="226" y="-99.8" font-family="Times,serif" font-size="14.00">CartFeatureRoutingModule</text>
</g>
<!-- CartFeatureRoutingModule&#45;&gt;CartFeatureModule -->
<g id="edge3" class="edge">
<title>CartFeatureRoutingModule&#45;&gt;CartFeatureModule</title>
<path fill="none" stroke="black" d="M284.28,-122.11C284.28,-122.11 284.28,-140.99 284.28,-140.99"/>
<polygon fill="black" stroke="black" points="280.78,-140.99 284.28,-150.99 287.78,-140.99 280.78,-140.99"/>
</g>
<!-- SharedModule -->
<g id="node5" class="node">
<title>SharedModule</title>
<polygon fill="#8dd3c7" stroke="black" points="122.42,-122 119.42,-126 98.42,-126 95.42,-122 23.58,-122 23.58,-86 122.42,-86 122.42,-122"/>
<text text-anchor="middle" x="73" y="-99.8" font-family="Times,serif" font-size="14.00">SharedModule</text>
</g>
<!-- SharedModule&#45;&gt;CartFeatureModule -->
<g id="edge4" class="edge">
<title>SharedModule&#45;&gt;CartFeatureModule</title>
<path fill="none" stroke="black" d="M73,-122.11C73,-141.34 73,-169 73,-169 73,-169 247.35,-169 247.35,-169"/>
<polygon fill="black" stroke="black" points="247.35,-172.5 257.35,-169 247.35,-165.5 247.35,-172.5"/>
</g>
</g>
</svg>
