<?xml version="1.0" encoding="UTF-8" standalone="no"?>
<!DOCTYPE svg PUBLIC "-//W3C//DTD SVG 1.1//EN"
 "http://www.w3.org/Graphics/SVG/1.1/DTD/svg11.dtd">
<!-- Generated by graphviz version 2.47.0 (20210316.0004)
 -->
<!-- Title: dependencies Pages: 1 -->
<svg width="692pt" height="211pt"
 viewBox="0.00 0.00 692.00 211.00" xmlns="http://www.w3.org/2000/svg" xmlns:xlink="http://www.w3.org/1999/xlink">
<g id="graph0" class="graph" transform="scale(1 1) rotate(0) translate(4 207)">
<title>dependencies</title>
<polygon fill="white" stroke="transparent" points="-4,4 -4,-207 688,-207 688,4 -4,4"/>
<text text-anchor="start" x="321.01" y="-42.4" font-family="Times-12" font-weight="bold" font-size="14.00">Legend</text>
<polygon fill="#ffffb3" stroke="transparent" points="108,-10 108,-30 128,-30 128,-10 108,-10"/>
<text text-anchor="start" x="131.63" y="-15.4" font-family="Times-12" font-size="14.00"> &#160;Declarations</text>
<polygon fill="#8dd3c7" stroke="transparent" points="221,-10 221,-30 241,-30 241,-10 221,-10"/>
<text text-anchor="start" x="244.73" y="-15.4" font-family="Times-12" font-size="14.00"> &#160;Module</text>
<polygon fill="#80b1d3" stroke="transparent" points="307,-10 307,-30 327,-30 327,-10 307,-10"/>
<text text-anchor="start" x="330.78" y="-15.4" font-family="Times-12" font-size="14.00"> &#160;Bootstrap</text>
<polygon fill="#fdb462" stroke="transparent" points="404,-10 404,-30 424,-30 424,-10 404,-10"/>
<text text-anchor="start" x="427.67" y="-15.4" font-family="Times-12" font-size="14.00"> &#160;Providers</text>
<polygon fill="#fb8072" stroke="transparent" points="500,-10 500,-30 520,-30 520,-10 500,-10"/>
<text text-anchor="start" x="523.73" y="-15.4" font-family="Times-12" font-size="14.00"> &#160;Exports</text>
<g id="clust1" class="cluster">
<title>cluster_CartFeatureModule</title>
<polygon fill="none" stroke="black" stroke-dasharray="1,5" points="8,-70 8,-195 676,-195 676,-70 8,-70"/>
</g>
<g id="clust5" class="cluster">
<title>cluster_CartFeatureModule_imports</title>
<polygon fill="none" stroke="black" points="365,-78 365,-130 668,-130 668,-78 365,-78"/>
</g>
<g id="clust2" class="cluster">
<title>cluster_CartFeatureModule_declarations</title>
<polygon fill="none" stroke="black" points="16,-78 16,-130 357,-130 357,-78 16,-78"/>
</g>
<!-- CartFeatureComponent -->
<g id="node1" class="node">
<title>CartFeatureComponent</title>
<polygon fill="#ffffb3" stroke="black" points="348.91,-122 201.09,-122 201.09,-86 348.91,-86 348.91,-122"/>
<text text-anchor="middle" x="275" y="-99.8" font-family="Times,serif" font-size="14.00">CartFeatureComponent</text>
</g>
<!-- CartFeatureModule -->
<g id="node3" class="node">
<title>CartFeatureModule</title>
<polygon fill="#8dd3c7" stroke="black" points="410.63,-187 407.63,-191 386.63,-191 383.63,-187 285.37,-187 285.37,-151 410.63,-151 410.63,-187"/>
<text text-anchor="middle" x="348" y="-164.8" font-family="Times,serif" font-size="14.00">CartFeatureModule</text>
</g>
<!-- CartFeatureComponent&#45;&gt;CartFeatureModule -->
<g id="edge1" class="edge">
<title>CartFeatureComponent&#45;&gt;CartFeatureModule</title>
<path fill="none" stroke="black" d="M316.95,-122.11C316.95,-122.11 316.95,-140.99 316.95,-140.99"/>
<polygon fill="black" stroke="black" points="313.45,-140.99 316.95,-150.99 320.45,-140.99 313.45,-140.99"/>
</g>
<!-- ShoppingCartComponent -->
<g id="node2" class="node">
<title>ShoppingCartComponent</title>
<polygon fill="#ffffb3" stroke="black" points="183.61,-122 24.39,-122 24.39,-86 183.61,-86 183.61,-122"/>
<text text-anchor="middle" x="104" y="-99.8" font-family="Times,serif" font-size="14.00">ShoppingCartComponent</text>
</g>
<!-- ShoppingCartComponent&#45;&gt;CartFeatureModule -->
<g id="edge2" class="edge">
<title>ShoppingCartComponent&#45;&gt;CartFeatureModule</title>
<path fill="none" stroke="black" d="M104,-122.11C104,-141.34 104,-169 104,-169 104,-169 275.16,-169 275.16,-169"/>
<polygon fill="black" stroke="black" points="275.16,-172.5 285.16,-169 275.16,-165.5 275.16,-172.5"/>
</g>
<!-- CartFeatureRoutingModule -->
<g id="node4" class="node">
<title>CartFeatureRoutingModule</title>
<polygon fill="#8dd3c7" stroke="black" points="660.25,-122 657.25,-126 636.25,-126 633.25,-122 489.75,-122 489.75,-86 660.25,-86 660.25,-122"/>
<text text-anchor="middle" x="575" y="-99.8" font-family="Times,serif" font-size="14.00">CartFeatureRoutingModule</text>
</g>
<!-- CartFeatureRoutingModule&#45;&gt;CartFeatureModule -->
<g id="edge3" class="edge">
<title>CartFeatureRoutingModule&#45;&gt;CartFeatureModule</title>
<path fill="none" stroke="black" d="M575,-122.11C575,-141.34 575,-169 575,-169 575,-169 420.93,-169 420.93,-169"/>
<polygon fill="black" stroke="black" points="420.93,-165.5 410.93,-169 420.93,-172.5 420.93,-165.5"/>
</g>
<!-- SharedModule -->
<g id="node5" class="node">
<title>SharedModule</title>
<polygon fill="#8dd3c7" stroke="black" points="471.42,-122 468.42,-126 447.42,-126 444.42,-122 372.58,-122 372.58,-86 471.42,-86 471.42,-122"/>
<text text-anchor="middle" x="422" y="-99.8" font-family="Times,serif" font-size="14.00">SharedModule</text>
</g>
<!-- SharedModule&#45;&gt;CartFeatureModule -->
<g id="edge4" class="edge">
<title>SharedModule&#45;&gt;CartFeatureModule</title>
<path fill="none" stroke="black" d="M391.8,-122.11C391.8,-122.11 391.8,-140.99 391.8,-140.99"/>
<polygon fill="black" stroke="black" points="388.3,-140.99 391.8,-150.99 395.3,-140.99 388.3,-140.99"/>
</g>
</g>
</svg>
